<svg xmlns="http://www.w3.org/2000/svg" viewBox="0 0 271.96 50.63"><defs><style>.cls-1{fill:#57cc06;}</style></defs><title>Asset 1</title><g id="Layer_2" data-name="Layer 2"><g id="Layer_1-2" data-name="Layer 1"><g id="Layer_2-2" data-name="Layer 2"><g id="Layer_1-2-2" data-name="Layer 1-2"><path class="cls-1" d="M15.94,32.81H28.65a15.11,15.11,0,0,0,13.24-7.64,15.6,15.6,0,0,0,2.11-8,14.12,14.12,0,0,0-2.09-7.43,16,16,0,0,0-5.64-5.55,14.8,14.8,0,0,0-7.62-2.08H2.11V48.52H0V0H28.65a16.83,16.83,0,0,1,8.64,2.36,17.92,17.92,0,0,1,6.44,6.33,16.16,16.16,0,0,1,2.38,8.48,18.24,18.24,0,0,1-2.24,9.17,16.25,16.25,0,0,1-6.08,6.18l5.45,16H41l-5.22-15c-.78.31-1.38.52-1.79.64l4.9,14.36H36.68L31.9,34.66c-.17,0-.8.11-1.87.2l4.54,13.66H32.34l-4.48-13.6H26l4.27,13.6H28l-4.3-13.6H15.94Zm0-4.22H28.65a10.84,10.84,0,0,0,7.85-3.2,11,11,0,0,0,3.28-8.22,10.25,10.25,0,0,0-3.35-7.58,10.84,10.84,0,0,0-7.78-3.26H6.33V48.52H4.22V4.22H28.65A12.69,12.69,0,0,1,35.2,6a13.5,13.5,0,0,1,4.88,4.79,12.13,12.13,0,0,1,1.81,6.37A13,13,0,0,1,38,26.82a12.75,12.75,0,0,1-9.33,3.88H15.94Zm0-4.21H28.65A6.69,6.69,0,0,0,35.59,18a7.12,7.12,0,0,0,0-.8,6.26,6.26,0,0,0-2.11-4.59,6.77,6.77,0,0,0-4.81-2H10.55v38H8.44V8.44H28.65A8.77,8.77,0,0,1,35,11.09a8.25,8.25,0,0,1,2.73,6.08,9,9,0,0,1-9.12,9.31H15.94ZM14.77,48.52H12.66V12.66h16A4.78,4.78,0,0,1,32,14a4.25,4.25,0,0,1,1.42,3.18c0,3.4-1.61,5.1-4.81,5.1H15.94V20.16H28.65a2.81,2.81,0,0,0,2-.66,3.08,3.08,0,0,0,.72-2.33,2.2,2.2,0,0,0-.78-1.72,2.81,2.81,0,0,0-1.92-.68H14.77Z"/><path class="cls-1" d="M52.73,48.52H50.62V6.33h2.11Zm4.22,0H54.84V6.33H57Zm4.22,0H59.06V6.33h2.11ZM65.39,38H85.58v2.11H65.39v2.11H85.58V44.3H65.39v2.11H85.58v2.11H63.28V6.33h22.3V8.44H65.39v2.11H85.58v2.11H65.39v2.11H85.58v2.11H65.39v5.24h19v2.11h-19v2.11h19v2.11h-19v2.11h19v2.11h-19Z"/><path class="cls-1" d="M92.75,48.52H90.64V6.33h2.11Zm4.22,0H94.86V6.33H97Zm4.22,0H99.08V6.33h2.11Zm4.22,0H103.3V6.33h20.13V8.44h-18v2.11h18v2.11h-18v2.11h18v2.11h-18v6.44H122v2.11H105.41v2.11H122v2.11H105.41v2.11H122v2.11H105.41Z"/><path class="cls-1" d="M128.17,6.33h2.11V48.52h-2.11Zm4.22,0h2.11V48.52h-2.11Zm4.22,0h2.11V48.52h-2.11Zm4.22,0h2.11V38H158.5v2.11H142.94v2.11H158.5V44.3H142.94v2.11H158.5v2.11H140.83Z"/><path class="cls-1" d="M163.15,6.33h2.11V48.52h-2.11Zm4.22,0h2.11V48.52h-2.11Zm4.22,0h2.11V48.52h-2.11Zm4.22,0h2.11V48.52h-2.11Z"/><path class="cls-1" d="M223.65,13,222,14.21a21.07,21.07,0,0,0-35.91,5,20.89,20.89,0,0,0,0,16.38,20.71,20.71,0,0,0,11.24,11.24A21.18,21.18,0,0,0,222,40.63l1.67,1.29a23.42,23.42,0,0,1-8,6.38,23.19,23.19,0,0,1-31.48-29.87A23.1,23.1,0,0,1,223.65,13Zm-3.28,2.64L218.73,17a17.11,17.11,0,0,0-5.83-4.65,16.82,16.82,0,0,0-13.9-.42,16.89,16.89,0,0,0-5.39,27.48A16.88,16.88,0,0,0,218.76,38l1.58,1.38a19.2,19.2,0,0,1-6.53,5.2,18.92,18.92,0,0,1-15.65.38A19,19,0,0,1,188,20a19.4,19.4,0,0,1,4-6,19.32,19.32,0,0,1,28.37,1.59Zm-3.31,2.63-1.67,1.29a12.49,12.49,0,0,0-9.91-4.82,12.14,12.14,0,0,0-9,3.72,12.24,12.24,0,0,0-3.71,8.93,12.23,12.23,0,0,0,3.71,8.94,12.14,12.14,0,0,0,9,3.72,12.72,12.72,0,0,0,9.9-4.78L217,36.65a14.65,14.65,0,0,1-24.72-2.74,14.87,14.87,0,0,1-1.49-6.49,14.77,14.77,0,0,1,14.79-14.76A14.43,14.43,0,0,1,212,14.14a14.23,14.23,0,0,1,5.06,4.08Zm-3.28,2.64-1.7,1.29A8.41,8.41,0,1,0,209.19,35a8.74,8.74,0,0,0,2.92-2.34L213.75,34a10.21,10.21,0,0,1-3.63,2.89,10.53,10.53,0,1,1-4.57-20,10.33,10.33,0,0,1,4.63,1.06,10.62,10.62,0,0,1,3.6,2.92Z"/><path class="cls-1" d="M227.64,6.33h2.11V48.52h-2.11Zm4.21,0H234V48.52h-2.11Zm4.22,0h2.11V48.52h-2.11Zm4.22,0h2.11V48.52h-2.11Zm17.52,0h-2.34L243.69,27.6l11.6,20.92h2.35L246,27.6Zm4.72,0h-2.34L248.44,27.6,260,48.52h2.34L250.78,27.6Zm4.72,0H264.9L253.15,27.6l11.58,20.92h2.34L255.5,27.6Zm4.71,0h-2.34L257.87,27.6l11.57,20.92h2.35L260.21,27.6Z"/></g></g></g></g></svg>