<svg xmlns="http://www.w3.org/2000/svg" viewBox="0 0 271.96 50.63"><defs><style>.cls-1{fill:#57cc06;}</style></defs><title>Asset 4</title><g id="Layer_2" data-name="Layer 2"><g id="Layer_1-2" data-name="Layer 1"><path class="cls-1" d="M15.94,32.81H28.65a15,15,0,0,0,7.62-2,15.21,15.21,0,0,0,5.62-5.64,15.51,15.51,0,0,0,2.11-8,14.11,14.11,0,0,0-2.09-7.43,16,16,0,0,0-5.64-5.55,14.75,14.75,0,0,0-7.62-2.08H2.11V48.52H0V0H28.65a16.86,16.86,0,0,1,8.64,2.36,17.92,17.92,0,0,1,6.44,6.33,16.16,16.16,0,0,1,2.38,8.48,18.24,18.24,0,0,1-2.24,9.17,16.26,16.26,0,0,1-6.08,6.18l5.45,16H41l-5.22-15c-.78.31-1.38.52-1.79.64l4.9,14.36H36.68L31.9,34.66c-.17,0-.8.11-1.87.2l4.54,13.66H32.34l-4.48-13.6H26l4.27,13.6H28L23.7,34.92H15.94Zm0-4.22H28.65a10.84,10.84,0,0,0,7.85-3.2,11,11,0,0,0,3.28-8.22,10.27,10.27,0,0,0-3.35-7.58,10.85,10.85,0,0,0-7.78-3.26H6.33V48.52H4.22V4.22H28.65A12.69,12.69,0,0,1,35.2,6a13.58,13.58,0,0,1,4.88,4.79,12.09,12.09,0,0,1,1.81,6.37A13,13,0,0,1,38,26.82a12.75,12.75,0,0,1-9.33,3.88H15.94Zm0-4.21H28.65a6.68,6.68,0,0,0,6.92-7.21,6.27,6.27,0,0,0-2.11-4.59,6.77,6.77,0,0,0-4.81-2H10.55v38H8.44V8.44H28.65A8.77,8.77,0,0,1,35,11.09a8.25,8.25,0,0,1,2.73,6.08A9,9,0,0,1,35,23.94a8.89,8.89,0,0,1-6.39,2.54H15.94ZM14.77,48.52H12.66V12.66h16A4.78,4.78,0,0,1,32,14a4.24,4.24,0,0,1,1.42,3.18c0,3.4-1.61,5.1-4.81,5.1H15.94V20.16H28.65a2.82,2.82,0,0,0,2-.66,3.08,3.08,0,0,0,.72-2.33,2.2,2.2,0,0,0-.78-1.72,2.83,2.83,0,0,0-1.92-.68H14.77Z"/><path class="cls-1" d="M52.73,48.52H50.62V6.33h2.11Zm4.22,0H54.84V6.33H57Zm4.22,0H59.06V6.33h2.11ZM65.39,38H85.58v2.11H65.39v2.11H85.58V44.3H65.39v2.11H85.58v2.11H63.28V6.33h22.3V8.44H65.39v2.11H85.58v2.11H65.39v2.11H85.58v2.11H65.39v5.24h19v2.11h-19v2.11h19v2.11h-19v2.11h19v2.11h-19Z"/><path class="cls-1" d="M92.75,48.52H90.64V6.33h2.11Zm4.22,0H94.86V6.33H97Zm4.22,0H99.08V6.33h2.11Zm4.22,0H103.3V6.33h20.13V8.44h-18v2.11h18v2.11h-18v2.11h18v2.11h-18v6.44H122v2.11H105.41v2.11H122v2.11H105.41v2.11H122v2.11H105.41Z"/><path class="cls-1" d="M128.17,6.33h2.11V48.52h-2.11Zm4.22,0h2.11V48.52h-2.11Zm4.22,0h2.11V48.52h-2.11Zm4.22,0h2.11V38H158.5v2.11H142.94v2.11H158.5V44.3H142.94v2.11H158.5v2.11H140.83Z"/><path class="cls-1" d="M163.15,6.33h2.11V48.52h-2.11Zm4.22,0h2.11V48.52h-2.11Zm4.22,0h2.11V48.52h-2.11Zm4.22,0h2.11V48.52h-2.11Z"/><path class="cls-1" d="M223.65,13,222,14.21a21.18,21.18,0,0,0-7.25-5.77A21,21,0,0,0,197.33,8a21.07,21.07,0,0,0-6.74,4.5,21.36,21.36,0,0,0-4.5,6.73,20.92,20.92,0,0,0,0,16.38,20.73,20.73,0,0,0,11.24,11.24,21,21,0,0,0,17.37-.44A21.2,21.2,0,0,0,222,40.63l1.67,1.29a23.44,23.44,0,0,1-8,6.38,23,23,0,0,1-19.13.48,22.88,22.88,0,0,1-12.35-12.35,22.87,22.87,0,0,1,0-18A23,23,0,0,1,196.51,6.06a23.09,23.09,0,0,1,19.14.49A23,23,0,0,1,223.65,13Zm-3.28,2.64-1.64,1.31a17,17,0,0,0-5.83-4.65A16.83,16.83,0,0,0,199,11.88a17,17,0,0,0-5.39,3.6,16.76,16.76,0,0,0-3.6,5.39,17,17,0,0,0,3.6,18.49A16.82,16.82,0,0,0,199,43a16.78,16.78,0,0,0,13.93-.36,17,17,0,0,0,5.83-4.66l1.58,1.38a19.06,19.06,0,0,1-6.53,5.2,18.92,18.92,0,0,1-15.65.38A18.68,18.68,0,0,1,188,34.8,18.79,18.79,0,0,1,188,20a19.38,19.38,0,0,1,4-6,19,19,0,0,1,6-4,19,19,0,0,1,15.69.39A18.94,18.94,0,0,1,220.37,15.59Zm-3.31,2.63-1.67,1.29A12.33,12.33,0,0,0,211,16a12.48,12.48,0,0,0-5.52-1.26,12.16,12.16,0,0,0-9,3.72,12.21,12.21,0,0,0-3.71,8.93,12.22,12.22,0,0,0,3.71,8.94,12.16,12.16,0,0,0,9,3.72,12.69,12.69,0,0,0,9.9-4.78L217,36.65A14.68,14.68,0,0,1,212,40.71a14.75,14.75,0,0,1-21.21-13.29,14.48,14.48,0,0,1,2-7.41,14.67,14.67,0,0,1,12.79-7.35A14.5,14.5,0,0,1,212,14.14,14.34,14.34,0,0,1,217.06,18.22Zm-3.28,2.64-1.7,1.29a8.43,8.43,0,0,0-15,5.27A8.42,8.42,0,0,0,209.19,35a8.64,8.64,0,0,0,2.92-2.34L213.75,34a10.25,10.25,0,0,1-3.63,2.89,10.57,10.57,0,0,1-4.6,1A10.55,10.55,0,0,1,195,27.42a10.55,10.55,0,0,1,10.55-10.54,10.38,10.38,0,0,1,4.63,1.06A10.68,10.68,0,0,1,213.78,20.86Z"/><path class="cls-1" d="M227.64,6.33h2.11V48.52h-2.11Zm4.21,0H234V48.52h-2.11Zm4.22,0h2.11V48.52h-2.11Zm4.22,0h2.11V48.52h-2.11Zm17.52,0h-2.34L243.69,27.6l11.6,20.92h2.35L246,27.6Zm4.72,0h-2.34L248.44,27.6,260,48.52h2.34L250.78,27.6Zm4.72,0H264.9L253.15,27.6l11.58,20.92h2.34L255.5,27.6Zm4.71,0h-2.34L257.87,27.6l11.57,20.92h2.35L260.21,27.6Z"/></g></g></svg>