<svg xmlns="http://www.w3.org/2000/svg" viewBox="0 0 46.11 48.52"><defs><style>.cls-1{fill:#57cc06;}</style></defs><title>Asset 3</title><g id="Layer_2" data-name="Layer 2"><g id="Layer_1-2" data-name="Layer 1"><path class="cls-1" d="M15.94,32.81H28.65a15,15,0,0,0,7.62-2,15.21,15.21,0,0,0,5.62-5.64,15.51,15.51,0,0,0,2.11-8,14.11,14.11,0,0,0-2.09-7.43,16,16,0,0,0-5.64-5.55,14.75,14.75,0,0,0-7.62-2.08H2.11V48.52H0V0H28.65a16.86,16.86,0,0,1,8.64,2.36,17.92,17.92,0,0,1,6.44,6.33,16.16,16.16,0,0,1,2.38,8.48,18.24,18.24,0,0,1-2.24,9.17,16.26,16.26,0,0,1-6.08,6.18l5.45,16H41l-5.22-15c-.78.31-1.38.52-1.79.64l4.9,14.36H36.68L31.9,34.66c-.17,0-.8.11-1.87.2l4.54,13.66H32.34l-4.48-13.6H26l4.27,13.6H28L23.7,34.92H15.94Zm0-4.22H28.65a10.84,10.84,0,0,0,7.85-3.2,11,11,0,0,0,3.29-8.22,10.28,10.28,0,0,0-3.36-7.58,10.85,10.85,0,0,0-7.78-3.26H6.33V48.52H4.22V4.22H28.65A12.69,12.69,0,0,1,35.2,6a13.58,13.58,0,0,1,4.88,4.79,12.09,12.09,0,0,1,1.81,6.37A13,13,0,0,1,38,26.82a12.75,12.75,0,0,1-9.33,3.88H15.94Zm0-4.21H28.65a6.68,6.68,0,0,0,6.92-7.21,6.27,6.27,0,0,0-2.11-4.59,6.77,6.77,0,0,0-4.81-2H10.55v38H8.44V8.44H28.65A8.75,8.75,0,0,1,35,11.09a8.25,8.25,0,0,1,2.73,6.08A9,9,0,0,1,35,23.94a8.89,8.89,0,0,1-6.39,2.54H15.94ZM14.77,48.52H12.66V12.66h16A4.78,4.78,0,0,1,32,14a4.24,4.24,0,0,1,1.42,3.18q0,5.1-4.81,5.1H15.94V20.16H28.65a2.82,2.82,0,0,0,2-.66,3.08,3.08,0,0,0,.72-2.33,2.2,2.2,0,0,0-.78-1.72,2.83,2.83,0,0,0-1.92-.68H14.77Z"/></g></g></svg>