<svg xmlns="http://www.w3.org/2000/svg" viewBox="0 0 293.76 297.09"><defs><style>.cls-1{fill:#50cc06;}</style></defs><title>new_R_</title><g id="Layer_2" data-name="Layer 2"><g id="Capa_1" data-name="Capa 1"><path class="cls-1" d="M101.53,200.93h81a98.72,98.72,0,0,0,48.52-12.38A95,95,0,0,0,266.88,154a92.47,92.47,0,0,0,13.44-48.89A84.09,84.09,0,0,0,267,59.65a99.29,99.29,0,0,0-35.93-34,97.2,97.2,0,0,0-48.52-12.73H13.44V297.09H0V0H182.53a110.87,110.87,0,0,1,55.05,14.44,112.17,112.17,0,0,1,41,38.75,96.24,96.24,0,0,1,15.21,51.94q0,31.94-14.28,56.15a101.78,101.78,0,0,1-38.72,37.86l34.71,97.95H261.28l-33.22-91.86q-7.45,2.88-11.38,4l31.17,87.91H233.66l-30.42-84.86q-1.68.36-11.94,1.26l28.93,83.6H206l-28.55-83.24H165.36l27.24,83.24H178.42L151,213.85H101.53Zm0-25.83h81q29.11,0,50-19.65t20.91-50.32q0-26.37-21.37-46.38t-49.55-20H40.31V297.09H26.88V25.83H182.53a83.89,83.89,0,0,1,41.71,11,85.34,85.34,0,0,1,31.07,29.33,72,72,0,0,1,11.57,39q0,35.34-24.91,59.11T182.53,188h-81Zm0-25.84h81q18.47,0,31.26-11.48t12.78-32.65q0-15.61-13.44-28.08t-30.6-12.47H67.19V297.09H53.75V51.67H182.53q22.75,0,40.12,16.23T240,105.13q0,25.83-16.8,41.44t-40.68,15.61h-81ZM94.06,297.09H80.63V77.5h101.9a31.09,31.09,0,0,1,21.55,8.16q9.06,8.18,9,19.47,0,31.22-30.6,31.21h-81V123.43h81q8,0,12.59-4t4.58-14.26a13.25,13.25,0,0,0-4.95-10.5,18.24,18.24,0,0,0-12.22-4.21H94.06Z"/></g></g></svg>