<svg xmlns="http://www.w3.org/2000/svg" xmlns:xlink="http://www.w3.org/1999/xlink" width="40" zoomAndPan="magnify" viewBox="0 0 30 30.000001" height="40" preserveAspectRatio="xMidYMid meet" version="1.0"><defs><g><g id="id1"/></g></defs><g fill="rgb(36.468506%, 85.879517%, 2.349854%)" fill-opacity="1"><g transform="translate(5.542616, 22.662681)"><g><path d="M 6.96875 -9.015625 L 11.71875 -9.015625 C 12.445312 -9.015625 13.0625 -9.25 13.5625 -9.71875 C 14.0625 -10.1875 14.3125 -10.851562 14.3125 -11.71875 C 14.3125 -12.351562 14.046875 -12.921875 13.515625 -13.421875 C 12.992188 -13.929688 12.394531 -14.1875 11.71875 -14.1875 L 4.953125 -14.1875 L 4.953125 0 L 4.171875 0 L 4.171875 -14.984375 L 11.71875 -14.984375 C 12.613281 -14.984375 13.398438 -14.648438 14.078125 -13.984375 C 14.753906 -13.328125 15.09375 -12.570312 15.09375 -11.71875 C 15.09375 -10.664062 14.765625 -9.820312 14.109375 -9.1875 C 13.453125 -8.550781 12.65625 -8.234375 11.71875 -8.234375 L 6.96875 -8.234375 Z M 6.96875 -7.4375 L 11.71875 -7.4375 C 12.863281 -7.4375 13.84375 -7.835938 14.65625 -8.640625 C 15.476562 -9.441406 15.890625 -10.46875 15.890625 -11.71875 C 15.890625 -12.789062 15.46875 -13.734375 14.625 -14.546875 C 13.789062 -15.359375 12.820312 -15.765625 11.71875 -15.765625 L 3.390625 -15.765625 L 3.390625 0 L 2.59375 0 L 2.59375 -16.546875 L 11.71875 -16.546875 C 12.59375 -16.546875 13.410156 -16.320312 14.171875 -15.875 C 14.929688 -15.4375 15.535156 -14.84375 15.984375 -14.09375 C 16.441406 -13.34375 16.671875 -12.550781 16.671875 -11.71875 C 16.671875 -10.28125 16.179688 -9.078125 15.203125 -8.109375 C 14.234375 -7.140625 13.070312 -6.65625 11.71875 -6.65625 L 6.96875 -6.65625 Z M 6.96875 -5.875 L 11.71875 -5.875 C 12.75 -5.875 13.703125 -6.125 14.578125 -6.625 C 15.453125 -7.125 16.148438 -7.820312 16.671875 -8.71875 C 17.203125 -9.625 17.46875 -10.625 17.46875 -11.71875 C 17.46875 -12.695312 17.203125 -13.617188 16.671875 -14.484375 C 16.148438 -15.347656 15.445312 -16.039062 14.5625 -16.5625 C 13.6875 -17.082031 12.738281 -17.34375 11.71875 -17.34375 L 1.8125 -17.34375 L 1.8125 0 L 1.015625 0 L 1.015625 -18.125 L 11.71875 -18.125 C 12.863281 -18.125 13.941406 -17.832031 14.953125 -17.25 C 15.960938 -16.664062 16.765625 -15.878906 17.359375 -14.890625 C 17.953125 -13.898438 18.25 -12.84375 18.25 -11.71875 C 18.25 -10.414062 17.96875 -9.269531 17.40625 -8.28125 C 16.851562 -7.300781 16.097656 -6.535156 15.140625 -5.984375 L 17.171875 0 L 16.34375 0 L 14.390625 -5.609375 C 14.097656 -5.492188 13.878906 -5.410156 13.734375 -5.359375 L 15.5625 0 L 14.71875 0 L 12.9375 -5.171875 C 12.875 -5.160156 12.640625 -5.140625 12.234375 -5.109375 L 13.9375 0 L 13.109375 0 L 11.4375 -5.078125 L 10.71875 -5.078125 L 12.3125 0 L 11.484375 0 L 9.875 -5.078125 L 6.96875 -5.078125 Z M 6.53125 0 L 5.75 0 L 5.75 -13.40625 L 11.71875 -13.40625 C 12.207031 -13.40625 12.628906 -13.238281 12.984375 -12.90625 C 13.335938 -12.570312 13.515625 -12.175781 13.515625 -11.71875 C 13.515625 -10.445312 12.914062 -9.8125 11.71875 -9.8125 L 6.96875 -9.8125 L 6.96875 -10.59375 L 11.71875 -10.59375 C 12.039062 -10.59375 12.289062 -10.675781 12.46875 -10.84375 C 12.644531 -11.007812 12.734375 -11.300781 12.734375 -11.71875 C 12.734375 -11.96875 12.632812 -12.175781 12.4375 -12.34375 C 12.25 -12.519531 12.007812 -12.609375 11.71875 -12.609375 L 6.53125 -12.609375 Z M 6.53125 0 "/></g></g></g></svg>