<?xml version="1.0" encoding="utf-8"?>
<!-- Generator: Adobe Illustrator 24.0.1, SVG Export Plug-In . SVG Version: 6.00 Build 0)  -->
<svg version="1.1" id="Capa_1" xmlns="http://www.w3.org/2000/svg" xmlns:xlink="http://www.w3.org/1999/xlink" x="0px" y="0px"
	 viewBox="0 0 480 480" style="enable-background:new 0 0 480 480;" xml:space="preserve">
<g>
	<g>
		<g>
			<path d="M401.6,196.7c0-0.2-0.1-0.4-0.2-0.5c0-0.1,0-0.2-0.1-0.2c-0.3-0.6-0.6-1.2-1.1-1.7c-0.1-0.1-0.2-0.2-0.3-0.3
				c-0.4-0.4-0.9-0.8-1.4-1.1c-0.2-0.1-0.3-0.2-0.5-0.3c-0.7-0.3-1.3-0.5-2.1-0.5H152.3l-1.6-2.2l76.5-27.7l0.9-0.3l1.4-0.5
				l73.5-26.6l15.6-5.6l23.1-8.4l56.1-20.3c3.1-1.1,4.9-5,3.9-8.6v0l-14.2-52.2c0-0.1-0.1-0.2-0.2-0.3c-0.2-0.6-0.5-1.2-0.8-1.7
				c-0.1-0.2-0.2-0.3-0.3-0.5c0-0.1-0.1-0.1-0.1-0.2c-0.4-0.5-0.9-0.9-1.4-1.2c-0.1-0.1-0.3-0.1-0.4-0.2c-0.5-0.3-1-0.4-1.5-0.5
				c-0.2,0-0.4-0.1-0.6-0.1c-0.7-0.1-1.4,0-2.1,0.3L214.4,95.2l-15.3,5.5l-26.3,9.5l-75.1,27.2H75.9c-3.3,0-5.9,3.1-5.9,6.8v280.2
				c0,11.3,8,20.5,17.8,20.5h296.4c9.8,0,17.8-9.2,17.8-20.5V199c0-0.1-0.1-0.2-0.1-0.4C401.9,197.9,401.8,197.3,401.6,196.7z
				 M384.2,205.8l-26.7,41h-32.6l26.7-41H384.2z M336.8,205.8l-26.7,41h-32.6l26.7-41H336.8z M289.3,205.8l-26.7,41h-32.6l26.7-41
				H289.3z M241.9,205.8l-26.7,41h-32.6l26.7-41H241.9z M194.5,205.8l-26.7,41h-3v-34.2c0-1.6-0.5-3.1-1.3-4.3l-1.7-2.5L194.5,205.8
				z M381.5,63.4l7.1,26.1l-17,6.1L381.5,63.4z M350.7,60.2l21.6-7.8l-14.8,48.3l-19.7,7.1l-11.4,4.1l14.8-48.3L350.7,60.2z
				 M299.8,78.7l27.3-9.9l-14.8,48.3l-31.1,11.3L296,80L299.8,78.7z M281.8,85.2L267,133.5l-31.1,11.3l14.8-48.3L281.8,85.2z
				 M205.5,112.8l31.1-11.3l-14.8,48.3l-31.1,11.3L205.5,112.8z M191.4,117.9l-14.8,48.3l-19.2,6.9l-11.9,4.3l14.8-48.3L191.4,117.9
				z M146.1,134.3l-10.4,33.9l-16.7-24.1L146.1,134.3z M81.9,151.1h26.8l27.4,39.5l8.7,12.6l4.1,6l0.7,1l3.3,4.7v31.8H81.9V151.1z
				 M390.1,424.5c0,3.8-2.7,6.8-5.9,6.8H87.8c-3.3,0-5.9-3.1-5.9-6.8v-164h308.3V424.5z M390.1,246.8h-17.8l17.8-27.3V246.8z"/>
		</g>
	</g>
	<g>
		<g>
			<rect x="93.7" y="219.5" width="11.9" height="13.7"/>
		</g>
	</g>
	<g>
		<g>
			<rect x="93.7" y="164.8" width="11.9" height="13.7"/>
		</g>
	</g>
	<g>
		<g>
			<rect x="129.3" y="219.5" width="11.9" height="13.7"/>
		</g>
	</g>
	<g>
		<g>
			<rect x="105.6" y="301.5" width="260.8" height="13.7"/>
		</g>
	</g>
	<g>
		<g>
			<polygon points="105.6,356.1 105.6,369.8 182.6,369.8 182.6,410.8 194.5,410.8 194.5,369.8 277.5,369.8 277.5,410.8 289.3,410.8 
				289.3,369.8 366.4,369.8 366.4,356.1 			"/>
		</g>
	</g>
</g>
</svg>
