<?xml version="1.0" encoding="utf-8"?>
<!-- Generator: Adobe Illustrator 24.0.1, SVG Export Plug-In . SVG Version: 6.00 Build 0)  -->
<svg version="1.1" id="Capa_1" xmlns="http://www.w3.org/2000/svg" xmlns:xlink="http://www.w3.org/1999/xlink" x="0px" y="0px"
	 viewBox="0 0 480 480" style="enable-background:new 0 0 480 480;" xml:space="preserve">
<g>
	<g>
		<g>
			<path d="M399.6,204.8c0-0.2-0.1-0.3-0.2-0.5c0-0.1,0-0.1-0.1-0.2c-0.3-0.5-0.6-1-1-1.4c-0.1-0.1-0.2-0.2-0.3-0.3
				c-0.4-0.4-0.8-0.7-1.3-0.9c-0.2-0.1-0.3-0.2-0.5-0.2c-0.6-0.3-1.3-0.4-2-0.4H156.3l-1.5-1.9l74.6-23.4l0.9-0.3l1.3-0.4l71.7-22.5
				l15.2-4.8l22.5-7.1l54.8-17.2c3-1,4.7-4.2,3.8-7.3v0l-13.9-44.2c0-0.1-0.1-0.2-0.2-0.3c-0.2-0.5-0.5-1-0.8-1.4
				c-0.1-0.1-0.2-0.3-0.3-0.4c0-0.1-0.1-0.1-0.1-0.2c-0.4-0.4-0.9-0.8-1.4-1c-0.1-0.1-0.3-0.1-0.4-0.2c-0.5-0.2-1-0.4-1.5-0.4
				c-0.2,0-0.4-0.1-0.6-0.1c-0.7-0.1-1.4,0-2,0.2l-161.7,50.7l-15,4.7l-25.7,8.1l-73.3,23H81.8c-3.2,0-5.8,2.6-5.8,5.8v237.2
				c0,9.6,7.8,17.4,17.4,17.4h289.3c9.6,0,17.4-7.8,17.4-17.4V206.7c0-0.1-0.1-0.2-0.1-0.3C399.9,205.8,399.8,205.3,399.6,204.8z
				 M382.6,212.5l-26,34.7h-31.8l26-34.7H382.6z M336.3,212.5l-26,34.7h-31.8l26-34.7H336.3z M290.1,212.5l-26,34.7h-31.8l26-34.7
				H290.1z M243.8,212.5l-26,34.7h-31.8l26-34.7H243.8z M197.5,212.5l-26,34.7h-2.9v-28.9c0-1.3-0.4-2.6-1.3-3.6l-1.7-2.1
				L197.5,212.5z M380,91.9l6.9,22.1l-16.6,5.2L380,91.9z M349.9,89.2l21.1-6.6l-14.5,40.9l-19.3,6l-11.1,3.5l14.5-40.9L349.9,89.2z
				 M300.2,104.8l26.6-8.4l-14.5,40.9l-30.4,9.5l14.5-40.9L300.2,104.8z M282.7,110.3l-14.5,40.9l-30.3,9.5l14.5-40.9L282.7,110.3z
				 M208.2,133.7l30.4-9.5l-14.5,40.9l-30.4,9.5L208.2,133.7z M194.4,138L180,179l-18.7,5.9l-11.7,3.7l14.5-40.9L194.4,138z
				 M150.2,151.9l-10.1,28.7l-16.3-20.4L150.2,151.9z M87.6,166.2h26.1l26.7,33.4l8.5,10.7l4,5.1l0.7,0.9l3.2,4v26.9H87.6V166.2z
				 M388.4,397.6c0,3.2-2.6,5.8-5.8,5.8H93.4c-3.2,0-5.8-2.6-5.8-5.8V258.8h300.8V397.6z M388.4,247.2h-17.4l17.4-23.1V247.2z"/>
		</g>
	</g>
	<g>
		<g>
			<rect x="99.1" y="224" width="11.6" height="11.6"/>
		</g>
	</g>
	<g>
		<g>
			<rect x="99.1" y="177.8" width="11.6" height="11.6"/>
		</g>
	</g>
	<g>
		<g>
			<rect x="133.9" y="224" width="11.6" height="11.6"/>
		</g>
	</g>
	<g>
		<g>
			<rect x="110.7" y="293.5" width="254.6" height="11.6"/>
		</g>
	</g>
	<g>
		<g>
			<polygon points="110.7,339.7 110.7,351.3 185.9,351.3 185.9,386 197.5,386 197.5,351.3 278.5,351.3 278.5,386 290.1,386 
				290.1,351.3 365.3,351.3 365.3,339.7 			"/>
		</g>
	</g>
</g>
</svg>
