<svg xmlns="http://www.w3.org/2000/svg" width="32.061" height="32" viewBox="0 0 32.061 32">
  <g id="logo-instagram" transform="translate(0.187)">
    <rect id="Rectangle_48" data-name="Rectangle 48" width="32" height="32" transform="translate(-0.187)" fill="none"/>
    <g id="Group_73" data-name="Group 73" transform="translate(0 0)">
      <path id="Path_5" data-name="Path 5" d="M15.937,0c-4.328,0-4.871.019-6.571.1A9.524,9.524,0,0,0,2.675,2.675,9.523,9.523,0,0,0,.1,9.366c-.077,1.7-.1,2.243-.1,6.571s.019,4.871.1,6.571A9.524,9.524,0,0,0,2.675,29.2a9.523,9.523,0,0,0,6.692,2.579c1.7.077,2.243.1,6.571.1s4.871-.019,6.571-.1A9.525,9.525,0,0,0,29.2,29.2a9.523,9.523,0,0,0,2.579-6.692c.077-1.7.1-2.243.1-6.571s-.019-4.871-.1-6.571A9.524,9.524,0,0,0,29.2,2.675,9.523,9.523,0,0,0,22.508.1c-1.7-.077-2.243-.1-6.571-.1Z" transform="translate(0 0)" fill="#e02d69"/>
      <path id="Path_6" data-name="Path 6" d="M18.625,9.914c2.837,0,3.173.011,4.293.062a4.552,4.552,0,0,1,3.195,1.161,4.552,4.552,0,0,1,1.161,3.195c.051,1.12.062,1.456.062,4.293s-.011,3.173-.062,4.293a4.552,4.552,0,0,1-1.161,3.195,4.552,4.552,0,0,1-3.195,1.161c-1.12.051-1.456.062-4.293.062s-3.173-.011-4.293-.062a4.552,4.552,0,0,1-3.195-1.161,4.552,4.552,0,0,1-1.161-3.195c-.051-1.12-.062-1.456-.062-4.293s.011-3.173.062-4.293a4.552,4.552,0,0,1,1.161-3.195,4.552,4.552,0,0,1,3.195-1.161c1.12-.051,1.456-.062,4.293-.062m0-1.914c-2.885,0-3.247.012-4.381.064A6.353,6.353,0,0,0,9.783,9.783a6.35,6.35,0,0,0-1.719,4.461C8.012,15.378,8,15.74,8,18.625s.012,3.247.064,4.381a6.353,6.353,0,0,0,1.719,4.461,6.35,6.35,0,0,0,4.461,1.719c1.134.052,1.5.064,4.381.064s3.247-.012,4.381-.064a6.353,6.353,0,0,0,4.461-1.719,6.35,6.35,0,0,0,1.719-4.461c.052-1.134.064-1.5.064-4.381s-.012-3.247-.064-4.381a6.353,6.353,0,0,0-1.719-4.461,6.35,6.35,0,0,0-4.461-1.719C21.872,8.012,21.51,8,18.625,8Z" transform="translate(-2.688 -2.688)" fill="#fff"/>
      <path id="Path_7" data-name="Path 7" d="M21.24,15.784A5.456,5.456,0,1,0,26.7,21.24,5.456,5.456,0,0,0,21.24,15.784Zm0,9a3.541,3.541,0,1,1,3.541-3.541A3.541,3.541,0,0,1,21.24,24.781Z" transform="translate(-5.303 -5.303)" fill="#fff"/>
      <circle id="Ellipse_6" data-name="Ellipse 6" cx="1.275" cy="1.275" r="1.275" transform="translate(20.334 8.991)" fill="#fff"/>
    </g>
  </g>
</svg>
