<svg xmlns="http://www.w3.org/2000/svg" width="31.875" height="25.904" viewBox="0 0 31.875 25.904">
  <path id="Path_10" data-name="Path 10" d="M31.875,7.562a13.072,13.072,0,0,1-3.756,1.03,6.558,6.558,0,0,0,2.875-3.618,13.093,13.093,0,0,1-4.153,1.587A6.546,6.546,0,0,0,15.7,12.525,18.565,18.565,0,0,1,2.219,5.693a6.547,6.547,0,0,0,2.024,8.731,6.513,6.513,0,0,1-2.962-.818c0,.027,0,.055,0,.082A6.543,6.543,0,0,0,6.526,20.1a6.556,6.556,0,0,1-2.953.112,6.546,6.546,0,0,0,6.109,4.542,13.121,13.121,0,0,1-8.122,2.8A13.312,13.312,0,0,1,0,27.461,18.51,18.51,0,0,0,10.024,30.4c12.028,0,18.606-9.965,18.606-18.606q0-.425-.019-.846A13.29,13.29,0,0,0,31.875,7.562Z" transform="translate(0 -4.496)" fill="#69ace0"/>
</svg>
