<?xml version="1.0" encoding="utf-8"?>
<!-- Generator: Adobe Illustrator 24.0.1, SVG Export Plug-In . SVG Version: 6.00 Build 0)  -->
<svg version="1.1" id="Capa_1" xmlns="http://www.w3.org/2000/svg" xmlns:xlink="http://www.w3.org/1999/xlink" x="0px" y="0px"
	 viewBox="0 0 486.6 486.6" style="enable-background:new 0 0 486.6 486.6;" xml:space="preserve">
<style type="text/css">
	.st0{fill:none;}
	.st1{fill:#50CC06;}
</style>
<rect x="48" y="13" class="st0" width="404" height="439"/>
<g>
	<path class="st1" d="M212.9,301.4h81c17.4,0,33.6-4.1,48.5-12.4s26.9-19.8,35.8-34.5c9-14.8,13.4-31.1,13.4-48.9
		c0-16.1-4.5-31.3-13.3-45.5c-8.9-14.2-20.9-25.5-35.9-34c-15.1-8.5-31.2-12.7-48.5-12.7H124.8v284.2h-13.4V100.4h182.5
		c19.5,0,37.9,4.8,55.1,14.4c17.2,9.6,30.8,22.5,41,38.8c10.1,16.2,15.2,33.5,15.2,51.9c0,21.3-4.8,40-14.3,56.2
		c-9.5,16.1-22.4,28.8-38.7,37.9l34.7,98h-14.2l-33.2-91.9c-5,1.9-8.8,3.2-11.4,3.9l31.2,87.9H345l-30.4-84.9
		c-1.1,0.2-5.1,0.7-11.9,1.3l28.9,83.6h-14.2l-28.6-83.2h-12.1l27.2,83.2h-14.2l-27.4-83.2h-49.5V301.4z M212.9,275.5h81
		c19.4,0,36.1-6.5,50-19.6c13.9-13.1,20.9-29.9,20.9-50.3c0-17.6-7.1-33-21.4-46.4c-14.2-13.3-30.8-20-49.6-20H151.7v258.3h-13.4
		V126.3h155.7c14.8,0,28.7,3.6,41.7,10.9c13,7.3,23.4,17.1,31.1,29.3c7.7,12.3,11.6,25.3,11.6,39c0,23.6-8.3,43.3-24.9,59.1
		c-16.6,15.8-36.4,23.8-59.4,23.8h-81V275.5z M212.9,249.7h81c12.3,0,22.7-3.8,31.3-11.5c8.5-7.7,12.8-18.5,12.8-32.7
		c0-10.4-4.5-19.8-13.4-28.1c-9-8.3-19.2-12.5-30.6-12.5H178.5v232.5h-13.4V152.1h128.8c15.2,0,28.6,5.4,40.1,16.2
		c11.6,10.8,17.4,23.2,17.4,37.2c0,17.2-5.6,31-16.8,41.4c-11.2,10.4-24.8,15.6-40.7,15.6h-81V249.7z M205.4,397.5H192V177.9h101.9
		c8.3,0,15.5,2.7,21.6,8.2c6,5.4,9.1,11.9,9.1,19.5c0,20.8-10.2,31.2-30.6,31.2h-81v-12.9h81c5.3,0,9.5-1.3,12.6-4
		c3-2.7,4.6-7.4,4.6-14.3c0-4.2-1.7-7.7-4.9-10.5c-3.3-2.8-7.4-4.2-12.2-4.2h-88.5V397.5z"/>
</g>
</svg>
