<?xml version="1.0" encoding="iso-8859-1"?>
<!-- Generator: Adobe Illustrator 16.0.0, SVG Export Plug-In . SVG Version: 6.00 Build 0)  -->
<!DOCTYPE svg PUBLIC "-//W3C//DTD SVG 1.1//EN" "http://www.w3.org/Graphics/SVG/1.1/DTD/svg11.dtd">
<svg version="1.1" id="Capa_1" xmlns="http://www.w3.org/2000/svg" xmlns:xlink="http://www.w3.org/1999/xlink" x="0px" y="0px"
	 width="31.855px" height="31.855px" viewBox="0 0 31.855 31.855" style="enable-background:new 0 0 31.855 31.855;"
	 xml:space="preserve">
<g>
	<path d="M21.244,29.229l1.612-13.819c0.05-0.424-0.084-0.85-0.368-1.169c-0.285-0.32-0.689-0.502-1.119-0.502h-4.078
		c-0.111-0.419-0.393-0.771-0.788-0.938V9.876l2.534,1.688c0.199,0.133,0.461,0.128,0.654-0.014c0.195-0.141,0.28-0.388,0.217-0.619
		l-1.005-3.585l2.919-2.307c0.188-0.15,0.266-0.4,0.189-0.629c-0.074-0.228-0.282-0.387-0.523-0.396l-3.717-0.15l-1.293-3.49
		C16.395,0.149,16.181,0,15.94,0c-0.241,0-0.455,0.149-0.539,0.374l-1.294,3.49l-3.717,0.15c-0.241,0.01-0.449,0.169-0.523,0.396
		c-0.074,0.229,0.001,0.479,0.189,0.629l2.92,2.307l-1.005,3.585c-0.064,0.23,0.021,0.478,0.215,0.618
		c0.194,0.142,0.456,0.147,0.656,0.015l2.526-1.683v2.945c-0.374,0.173-0.642,0.509-0.752,0.913h-4.08
		c-0.428,0-0.833,0.182-1.117,0.502C9.134,14.56,9,14.986,9.049,15.41l1.614,13.819H9.48c-0.947,0-1.715,0.768-1.715,1.715v0.912
		H24.09v-0.912c0-0.947-0.768-1.715-1.715-1.715H21.244z"/>
</g>
<g>
</g>
<g>
</g>
<g>
</g>
<g>
</g>
<g>
</g>
<g>
</g>
<g>
</g>
<g>
</g>
<g>
</g>
<g>
</g>
<g>
</g>
<g>
</g>
<g>
</g>
<g>
</g>
<g>
</g>
</svg>
