<svg id="transporter-empty" xmlns="http://www.w3.org/2000/svg" width="90.796" height="90.796" viewBox="0 0 90.796 90.796">
  <rect id="Rectangle_46" data-name="Rectangle 46" width="90.763" height="90.763" fill="none"/>
  <g id="Group_65" data-name="Group 65" transform="translate(0 0)">
    <path id="Path_4" data-name="Path 4" d="M68.1,79.447H22.7a5.675,5.675,0,0,0-5.675,5.675V90.8H73.773V85.122A5.675,5.675,0,0,0,68.1,79.447ZM90.4,47.6l-5.282-2.2-2.2-5.282a.708.708,0,0,0-1.269,0l-2.2,5.282-5.282,2.2a.709.709,0,0,0,0,1.269l5.282,2.2,2.2,5.282a.708.708,0,0,0,1.269,0l2.2-5.282,5.282-2.2a.709.709,0,0,0,0-1.269ZM11.348,5.676,9.146.394a.708.708,0,0,0-1.269,0l-2.2,5.282L.393,7.878a.71.71,0,0,0,0,1.269l5.282,2.2,2.2,5.282a.708.708,0,0,0,1.269,0l2.2-5.282,5.282-2.2a.709.709,0,0,0,0-1.269Z" transform="translate(-0.001 -0.001)" fill="#f5c517"/>
  </g>
</svg>
